<?xml version="1.0" encoding="UTF-8" standalone="no"?>
<svg
   xmlns:dc="http://purl.org/dc/elements/1.1/"
   xmlns:cc="http://creativecommons.org/ns#"
   xmlns:rdf="http://www.w3.org/1999/02/22-rdf-syntax-ns#"
   xmlns:svg="http://www.w3.org/2000/svg"
   xmlns="http://www.w3.org/2000/svg"
   xmlns:sodipodi="http://sodipodi.sourceforge.net/DTD/sodipodi-0.dtd"
   xmlns:inkscape="http://www.inkscape.org/namespaces/inkscape"
   version="1.1"
   id="Capa_1"
   x="0px"
   y="0px"
   width="25"
   height="25"
   viewBox="0 0 25 25"
   xml:space="preserve"
   sodipodi:docname="add.svg"
   inkscape:version="1.0.1 (3bc2e813f5, 2020-09-07)"><metadata
   id="metadata12"><rdf:RDF><cc:Work
       rdf:about=""><dc:format>image/svg+xml</dc:format><dc:type
         rdf:resource="http://purl.org/dc/dcmitype/StillImage" /><dc:title></dc:title></cc:Work></rdf:RDF></metadata><defs
   id="defs10" /><sodipodi:namedview
   pagecolor="#ffffff"
   bordercolor="#666666"
   borderopacity="1"
   objecttolerance="10"
   gridtolerance="10"
   guidetolerance="10"
   inkscape:pageopacity="0"
   inkscape:pageshadow="2"
   inkscape:window-width="1834"
   inkscape:window-height="1205"
   id="namedview8"
   showgrid="false"
   inkscape:zoom="22.361212"
   inkscape:cx="9.933468"
   inkscape:cy="12.808716"
   inkscape:window-x="0"
   inkscape:window-y="0"
   inkscape:window-maximized="0"
   inkscape:current-layer="Capa_1" />
<g
   id="g5"
   transform="matrix(0.04900717,0,0,0.04896726,0.03929388,0.01504894)">
	<g
   id="unknown-3">
		<path
   d="m 280.5,153 h -51 v 76.5 H 153 v 51 h 76.5 V 357 h 51 V 280.5 H 357 v -51 H 280.5 Z M 255,0 C 114.75,0 0,114.75 0,255 0,395.25 114.75,510 255,510 395.25,510 510,395.25 510,255 510,114.75 395.25,0 255,0 Z m 0,459 C 142.8,459 51,367.2 51,255 51,142.8 142.8,51 255,51 c 112.2,0 204,91.8 204,204 0,112.2 -91.8,204 -204,204 z"
   id="path2" />
	</g>
</g>
</svg>
