<?xml version="1.0" encoding="UTF-8" standalone="no"?>
<!-- Svg Vector Icons : http://www.onlinewebfonts.com/icon -->

<svg
   xmlns:dc="http://purl.org/dc/elements/1.1/"
   xmlns:cc="http://creativecommons.org/ns#"
   xmlns:rdf="http://www.w3.org/1999/02/22-rdf-syntax-ns#"
   xmlns:svg="http://www.w3.org/2000/svg"
   xmlns="http://www.w3.org/2000/svg"
   xmlns:sodipodi="http://sodipodi.sourceforge.net/DTD/sodipodi-0.dtd"
   xmlns:inkscape="http://www.inkscape.org/namespaces/inkscape"
   version="1.1"
   x="0px"
   y="0px"
   viewBox="0 0 1200 1000"
   enable-background="new 0 0 1000 1000"
   xml:space="preserve"
   id="svg8"
   sodipodi:docname="chat.svg"
   width="1200"
   height="1000"
   inkscape:version="0.92.5 (2060ec1f9f, 2020-04-08)"><defs
   id="defs12" /><sodipodi:namedview
   pagecolor="#ffffff"
   bordercolor="#666666"
   borderopacity="1"
   objecttolerance="10"
   gridtolerance="10"
   guidetolerance="10"
   inkscape:pageopacity="0"
   inkscape:pageshadow="2"
   inkscape:window-width="1573"
   inkscape:window-height="884"
   id="namedview10"
   showgrid="false"
   inkscape:zoom="0.236"
   inkscape:cx="500"
   inkscape:cy="500"
   inkscape:window-x="0"
   inkscape:window-y="27"
   inkscape:window-maximized="0"
   inkscape:current-layer="svg8" />
<metadata
   id="metadata2"> Svg Vector Icons : http://www.onlinewebfonts.com/icon <rdf:RDF><cc:Work
     rdf:about=""><dc:format>image/svg+xml</dc:format><dc:type
       rdf:resource="http://purl.org/dc/dcmitype/StillImage" /><dc:title></dc:title></cc:Work></rdf:RDF></metadata>
<g
   id="g6"
   transform="matrix(1.1383604,0,0,1,14.616396,2)"
   style="fill:#878787;fill-opacity:1"><path
     d="M 657.9,19.3 H 342.1 C 159,19.3 10,181.4 10,380.6 10,549.8 117.2,695 267.1,732.5 v 228.1 c 0,7.9 4.6,15.1 11.8,18.3 2.7,1.2 5.5,1.8 8.3,1.8 4.8,0 9.6,-1.7 13.3,-5 L 566,741.8 h 91.9 C 841,741.8 990,579.7 990,380.6 990,181.5 841,19.3 657.9,19.3 Z m 0,682.3 h -99.5 c -4.9,0 -9.6,1.8 -13.3,5 L 307.4,916 V 716.3 c 0,-9.6 -6.8,-17.9 -16.3,-19.8 -139.5,-27.1 -240.8,-160 -240.8,-316 0,-177 130.9,-321 291.9,-321 H 658 c 160.9,0 291.9,144 291.9,321 -0.1,177.1 -131.1,321.1 -292,321.1 z"
     id="path4"
     inkscape:connector-curvature="0"
     style="fill:#878787;fill-opacity:1" /></g>
</svg>