<?xml version="1.0" encoding="UTF-8" standalone="no"?>
<svg
   xmlns:dc="http://purl.org/dc/elements/1.1/"
   xmlns:cc="http://creativecommons.org/ns#"
   xmlns:rdf="http://www.w3.org/1999/02/22-rdf-syntax-ns#"
   xmlns:svg="http://www.w3.org/2000/svg"
   xmlns="http://www.w3.org/2000/svg"
   xmlns:sodipodi="http://sodipodi.sourceforge.net/DTD/sodipodi-0.dtd"
   xmlns:inkscape="http://www.inkscape.org/namespaces/inkscape"
   class="icon"
   height="512"
   viewBox="0 0 512 1024"
   version="1.1"
   id="svg4"
   sodipodi:docname="close-solid.svg"
   width="512"
   style="fill:#e3e3e3"
   inkscape:version="0.92.5 (2060ec1f9f, 2020-04-08)">
  <metadata
     id="metadata10">
    <rdf:RDF>
      <cc:Work
         rdf:about="">
        <dc:format>image/svg+xml</dc:format>
        <dc:type
           rdf:resource="http://purl.org/dc/dcmitype/StillImage" />
        <dc:title></dc:title>
      </cc:Work>
    </rdf:RDF>
  </metadata>
  <defs
     id="defs8" />
  <sodipodi:namedview
     pagecolor="#ffffff"
     bordercolor="#666666"
     borderopacity="1"
     objecttolerance="10"
     gridtolerance="10"
     guidetolerance="10"
     inkscape:pageopacity="0"
     inkscape:pageshadow="2"
     inkscape:window-width="1423"
     inkscape:window-height="871"
     id="namedview6"
     showgrid="false"
     inkscape:zoom="0.27929688"
     inkscape:cx="-207.66434"
     inkscape:cy="256"
     inkscape:window-x="75"
     inkscape:window-y="66"
     inkscape:window-maximized="0"
     inkscape:current-layer="svg4" />
  <rect
     style="fill:#707070;fill-opacity:1;stroke-width:2"
     id="rect3715"
     width="465.45456"
     height="479.77621"
     x="-3.5804117"
     y="229.14687" />
  <path
     style="stroke-width:1"
     inkscape:connector-curvature="0"
     d="m 225.56641,120.60311 c -202.319853,0 -366.33393,164.01305 -366.33393,366.33395 0,202.32294 164.014077,366.3339 366.33393,366.3339 202.3199,0 366.334,-164.01096 366.334,-366.3339 0,-202.3209 -164.0141,-366.33395 -366.334,-366.33395 z m 140.3116,463.47365 c 5.9617,5.95866 5.9617,15.6242 0,21.58592 l -21.5859,21.58592 c -5.9618,5.95968 -15.6273,5.95968 -21.586,0 l -97.1397,-97.13868 -97.1397,97.13868 c -5.9597,5.95968 -15.6242,5.95968 -21.5859,0 L 85.254907,605.66268 c -5.9617,-5.96172 -5.9617,-15.62726 0,-21.58592 l 97.139703,-97.1397 -97.140703,-97.13972 c -5.9618,-5.95968 -5.9618,-15.62418 0,-21.58592 L 106.83981,346.6255 c 5.9617,-5.95968 15.6272,-5.95968 21.5859,0 l 97.1397,97.13972 97.1397,-97.13972 c 5.9597,-5.95968 15.6242,-5.95968 21.5859,0 l 21.586,21.58592 c 5.9627,5.96174 5.9627,15.62726 0,21.58592 l -97.1387,97.13972 z"
     id="path2" />
</svg>
