<?xml version="1.0" encoding="UTF-8" standalone="no"?>
<svg
   xmlns:dc="http://purl.org/dc/elements/1.1/"
   xmlns:cc="http://creativecommons.org/ns#"
   xmlns:rdf="http://www.w3.org/1999/02/22-rdf-syntax-ns#"
   xmlns:svg="http://www.w3.org/2000/svg"
   xmlns="http://www.w3.org/2000/svg"
   xmlns:sodipodi="http://sodipodi.sourceforge.net/DTD/sodipodi-0.dtd"
   xmlns:inkscape="http://www.inkscape.org/namespaces/inkscape"
   version="1.1"
   id="Capa_1"
   x="0px"
   y="0px"
   width="25"
   height="25"
   viewBox="0 0 25 25.000001"
   xml:space="preserve"
   sodipodi:docname="delete.svg"
   inkscape:version="1.0.1 (3bc2e813f5, 2020-09-07)"><metadata
   id="metadata19"><rdf:RDF><cc:Work
       rdf:about=""><dc:format>image/svg+xml</dc:format><dc:type
         rdf:resource="http://purl.org/dc/dcmitype/StillImage" /><dc:title></dc:title></cc:Work></rdf:RDF></metadata><defs
   id="defs17" /><sodipodi:namedview
   pagecolor="#ffffff"
   bordercolor="#666666"
   borderopacity="1"
   objecttolerance="10"
   gridtolerance="10"
   guidetolerance="10"
   inkscape:pageopacity="0"
   inkscape:pageshadow="2"
   inkscape:window-width="1885"
   inkscape:window-height="1174"
   id="namedview15"
   showgrid="false"
   inkscape:zoom="16"
   inkscape:cx="25.444795"
   inkscape:cy="19.383633"
   inkscape:window-x="0"
   inkscape:window-y="0"
   inkscape:window-maximized="0"
   inkscape:current-layer="Capa_1" />
<g
   id="g12"
   transform="matrix(0.04984028,0,0,0.05119422,0.38629986,0.18393694)">
	<g
   id="g10">
		<path
   d="M 381.163,57.799 H 306.069 C 302.323,25.316 274.686,0 241.214,0 207.743,0 180.11,25.315 176.364,57.799 h -75.098 c -30.39,0 -55.111,24.728 -55.111,55.117 v 2.828 c 0,23.223 14.46,43.1 34.83,51.199 v 260.369 c 0,30.39 24.724,55.117 55.112,55.117 h 210.236 c 30.389,0 55.111,-24.729 55.111,-55.117 V 166.944 c 20.369,-8.1 34.83,-27.977 34.83,-51.199 v -2.828 c 0,-30.39 -24.723,-55.118 -55.111,-55.118 z M 241.214,26.139 c 19.037,0 34.927,13.645 38.443,31.66 h -76.879 c 3.515,-18.016 19.406,-31.66 38.436,-31.66 z m 134.091,401.173 c 0,15.978 -13,28.979 -28.973,28.979 H 136.096 c -15.973,0 -28.973,-13.002 -28.973,-28.979 V 170.861 h 268.182 z m 34.83,-311.568 c 0,15.978 -13,28.979 -28.973,28.979 H 101.266 c -15.973,0 -28.973,-13.001 -28.973,-28.979 v -2.828 c 0,-15.978 13,-28.979 28.973,-28.979 h 279.897 c 15.973,0 28.973,13.001 28.973,28.979 v 2.828 z"
   id="path2" />
		<path
   d="m 171.144,422.863 c 7.218,0 13.069,-5.853 13.069,-13.068 V 262.641 c 0,-7.216 -5.852,-13.07 -13.069,-13.07 -7.217,0 -13.069,5.854 -13.069,13.07 v 147.154 c -10e-4,7.217 5.851,13.068 13.069,13.068 z"
   id="path4" />
		<path
   d="m 241.214,422.863 c 7.218,0 13.07,-5.853 13.07,-13.068 V 262.641 c 0,-7.216 -5.854,-13.07 -13.07,-13.07 -7.217,0 -13.069,5.854 -13.069,13.07 v 147.154 c 0,7.217 5.851,13.068 13.069,13.068 z"
   id="path6" />
		<path
   d="m 311.284,422.863 c 7.217,0 13.068,-5.853 13.068,-13.068 V 262.641 c 0,-7.216 -5.852,-13.07 -13.068,-13.07 -7.219,0 -13.07,5.854 -13.07,13.07 v 147.154 c -10e-4,7.217 5.853,13.068 13.07,13.068 z"
   id="path8" />
	</g>
</g>
</svg>
