<?xml version="1.0" encoding="UTF-8" standalone="no"?>
<svg
   xmlns:dc="http://purl.org/dc/elements/1.1/"
   xmlns:cc="http://creativecommons.org/ns#"
   xmlns:rdf="http://www.w3.org/1999/02/22-rdf-syntax-ns#"
   xmlns:svg="http://www.w3.org/2000/svg"
   xmlns="http://www.w3.org/2000/svg"
   xmlns:sodipodi="http://sodipodi.sourceforge.net/DTD/sodipodi-0.dtd"
   xmlns:inkscape="http://www.inkscape.org/namespaces/inkscape"
   viewBox="0 0 25 25"
   version="1.1"
   id="svg4"
   sodipodi:docname="edit.svg"
   width="25"
   height="25"
   inkscape:version="1.0.1 (3bc2e813f5, 2020-09-07)">
  <metadata
     id="metadata10">
    <rdf:RDF>
      <cc:Work
         rdf:about="">
        <dc:format>image/svg+xml</dc:format>
        <dc:type
           rdf:resource="http://purl.org/dc/dcmitype/StillImage" />
        <dc:title></dc:title>
      </cc:Work>
    </rdf:RDF>
  </metadata>
  <defs
     id="defs8" />
  <sodipodi:namedview
     pagecolor="#ffffff"
     bordercolor="#666666"
     borderopacity="1"
     objecttolerance="10"
     gridtolerance="10"
     guidetolerance="10"
     inkscape:pageopacity="0"
     inkscape:pageshadow="2"
     inkscape:window-width="2007"
     inkscape:window-height="1232"
     id="namedview6"
     showgrid="false"
     inkscape:zoom="11.313708"
     inkscape:cx="60.955303"
     inkscape:cy="33.599136"
     inkscape:window-x="0"
     inkscape:window-y="0"
     inkscape:window-maximized="0"
     inkscape:current-layer="svg4" />
  <path
     d="m 17.55046,16.934537 1.380044,-1.559402 c 0.215631,-0.243656 0.590831,-0.0731 0.590831,0.277769 v 7.085531 c 0,1.291379 -0.927217,2.339101 -2.070067,2.339101 H 2.2707824 c -1.1428491,0 -2.07006629,-1.047722 -2.07006629,-2.339101 V 5.5850185 c 0,-1.2913793 0.92721719,-2.3391022 2.07006629,-2.3391022 H 14.065848 c 0.306197,0 0.461452,0.4190891 0.24582,0.6676188 l -1.380044,1.5594014 c -0.06469,0.073097 -0.150942,0.112082 -0.245821,0.112082 H 2.2707824 V 22.738435 H 17.451268 v -5.531002 c 0,-0.102337 0.0345,-0.199799 0.09919,-0.272896 z M 24.304051,7.1005618 12.979063,19.8974 9.0804381,20.384713 C 7.9505269,20.526033 6.9888086,19.449072 7.1138751,18.162566 L 7.5451389,13.757257 18.870127,0.9604184 c 0.987594,-1.11594669 2.58327,-1.11594669 3.566551,0 l 1.86306,2.1051921 c 0.987594,1.1159466 0.987594,2.9238778 0.0043,4.0349513 z M 20.043165,8.6063589 17.537521,5.7750705 9.5246399,14.834218 9.2098172,18.016372 12.02597,17.660633 Z m 2.794589,-3.8838844 -1.86306,-2.105192 c -0.176818,-0.1997983 -0.465765,-0.1997983 -0.63827,0 l -1.332606,1.5057971 2.505643,2.8312883 1.332606,-1.505797 c 0.172505,-0.2046715 0.172505,-0.526298 -0.0043,-0.7260964 z"
     id="path2"
     style="stroke-width:0.0458432" />
</svg>
