<?xml version="1.0" encoding="UTF-8"?><svg xmlns="http://www.w3.org/2000/svg" xmlns:xlink="http://www.w3.org/1999/xlink" id="Layer_1" x="0px" y="0px" viewBox="0 0 82.8 65.7" style="enable-background:new 0 0 82.8 65.7;" xml:space="preserve"> <style type="text/css"> .st0{display:none;} .st1{display:inline;fill:none;} .st2{fill:none;stroke:#FF293F;stroke-width:4;stroke-linecap:round;stroke-linejoin:round;} </style> <g id="bounding_box" class="st0"> <rect x="-56.8" y="-23.1" class="st1" width="196.2" height="111.7"></rect> </g> <g id="email_icon" transform="translate(46.332 34.435)"> <g id="email_icon_2" transform="translate(-43.771 -32.43)"> <path id="Rectangle_281_1_" class="st2" d="M11.3,6.7l54.8-0.2c3.2,0,5.8,2.6,5.8,5.7l0.1,37.6c0,3.2-2.6,5.8-5.7,5.8l-54.8,0.2 c-3.2,0-5.8-2.6-5.8-5.7L5.6,12.5C5.6,9.3,8.2,6.7,11.3,6.7z"></path> <path id="Path_2009_1_" class="st2" d="M71.7,10.7L46.5,36.1c-4.2,4.2-11,4.2-15.2,0L6,11"></path> <line id="Line_915_1_" class="st2" x1="51.7" y1="31.5" x2="72.1" y2="52"></line> <line id="Line_916_1_" class="st2" x1="26.1" y1="31.5" x2="5.9" y2="52.2"></line> </g> </g> </svg> 