<?xml version="1.0" encoding="UTF-8" standalone="no"?>
<svg
   xmlns:dc="http://purl.org/dc/elements/1.1/"
   xmlns:cc="http://creativecommons.org/ns#"
   xmlns:rdf="http://www.w3.org/1999/02/22-rdf-syntax-ns#"
   xmlns:svg="http://www.w3.org/2000/svg"
   xmlns="http://www.w3.org/2000/svg"
   xmlns:sodipodi="http://sodipodi.sourceforge.net/DTD/sodipodi-0.dtd"
   xmlns:inkscape="http://www.inkscape.org/namespaces/inkscape"
   version="1.1"
   id="Capa_1"
   x="0px"
   y="0px"
   viewBox="0 0 25 25"
   xml:space="preserve"
   sodipodi:docname="hourglass.svg"
   width="25"
   height="25"
   inkscape:version="1.0.1 (3bc2e813f5, 2020-09-07)"><metadata
   id="metadata18"><rdf:RDF><cc:Work
       rdf:about=""><dc:format>image/svg+xml</dc:format><dc:type
         rdf:resource="http://purl.org/dc/dcmitype/StillImage" /><dc:title></dc:title></cc:Work></rdf:RDF></metadata><defs
   id="defs16" /><sodipodi:namedview
   pagecolor="#ffffff"
   bordercolor="#666666"
   borderopacity="1"
   objecttolerance="10"
   gridtolerance="10"
   guidetolerance="10"
   inkscape:pageopacity="0"
   inkscape:pageshadow="2"
   inkscape:window-width="1957"
   inkscape:window-height="1166"
   id="namedview14"
   showgrid="false"
   inkscape:zoom="23.216645"
   inkscape:cx="20.712981"
   inkscape:cy="13.823099"
   inkscape:window-x="0"
   inkscape:window-y="0"
   inkscape:window-maximized="0"
   inkscape:current-layer="Capa_1" />
<g
   id="g11"
   transform="matrix(0.07230641,0,0,0.06878248,-0.22572657,0.62323481)">
	<g
   id="Layer_1"
   fill="#aaaaaa">
		<g
   id="g8">
			<path
   d="M 324.658,20.572 V 17.634 C 324.658,7.935 316.724,0 307.025,0 H 40.313 C 30.614,0 22.678,7.935 22.678,17.634 v 2.938 c 0,9.699 7.935,17.634 17.635,17.634 h 6.814 c 3.5,0 3.223,3.267 3.223,4.937 0,19.588 8.031,42.231 14.186,56.698 12.344,29.012 40.447,52.813 63.516,69.619 4.211,3.068 3.201,5.916 0.756,7.875 -22.375,17.924 -51.793,40.832 -64.271,70.16 -6.059,14.239 -13.934,36.4 -14.18,55.772 -0.025,1.987 0.771,5.862 -3.979,5.862 h -6.064 c -9.699,0 -17.635,7.936 -17.635,17.634 v 2.94 c 0,9.698 7.935,17.634 17.635,17.634 h 266.713 c 9.699,0 17.633,-7.936 17.633,-17.634 v -2.94 c 0,-9.698 -7.934,-17.634 -17.633,-17.634 h -3.816 c -7,0 -6.326,-5.241 -6.254,-7.958 0.488,-18.094 -4.832,-38.673 -12.617,-54.135 -17.318,-34.389 -44.629,-56.261 -61.449,-68.915 -3.65,-2.745 -4.018,-6.143 0,-8.906 17.342,-11.929 44.131,-34.526 61.449,-68.916 8.289,-16.464 13.785,-38.732 12.447,-57.621 -0.105,-1.514 -0.211,-4.472 3.758,-4.472 h 6.482 c 9.698,0 17.631,-7.934 17.631,-17.634 z m -54.387,72.644 c -16.113,31.998 -41.967,54.881 -64.455,68.67 -1.354,0.831 -3.936,2.881 -3.936,8.602 v 6.838 c 0,6.066 2.752,7.397 4.199,8.286 22.486,13.806 48.143,36.636 64.191,68.508 7.414,14.727 11.266,32.532 10.885,46.702 -0.078,2.947 1.053,8.308 -6.613,8.308 H 72.627 c -6.75,0 -6.475,-3.37 -6.459,-5.213 0.117,-12.895 4.563,-30.757 12.859,-50.255 14.404,-33.854 44.629,-54.988 64.75,-67.577 0.896,-0.561 2.629,-1.567 2.629,-6.922 v -10.236 c 0,-5.534 -2.656,-7.688 -4.057,-8.57 C 122.251,147.669 93.093,126.739 79.027,93.676 70.644,73.974 66.193,55.944 66.166,43.019 c -0.002,-1.694 0.211,-4.812 3.961,-4.812 h 206.582 c 4.168,0 4.127,3.15 4.264,4.829 1.183,14.645 -2.666,34.221 -10.702,50.18 z"
   id="path2" />
			<path
   d="m 169.541,196.2 -68.748,86.03 c -2.27,2.842 -1.152,5.166 2.484,5.166 h 140.781 c 3.637,0 4.756,-2.324 2.484,-5.166 L 177.796,196.2 c -2.271,-2.842 -5.985,-2.842 -8.255,0 z"
   id="path4" />
			<path
   d="m 168.986,156.219 c 2.576,2.568 6.789,2.568 9.363,0 l 34.576,-34.489 c 2.574,-2.568 1.707,-4.67 -1.932,-4.67 H 136.34 c -3.637,0 -4.506,2.102 -1.932,4.67 z"
   id="path6" />
		</g>
	</g>
</g>
</svg>
