<?xml version="1.0"?>
<svg xmlns="http://www.w3.org/2000/svg" width="26" height="26" viewBox="0 0 26 26">
    <path style="text-indent:0;text-align:start;line-height:normal;text-transform:none;block-progression:tb;-inkscape-font-specification:Bitstream Vera Sans" d="M 13 2.09375 C 7.8846462 2.09375 3.3182297 5.2421824 4.125 12.96875 C 4.0006916 13.078571 3.8775482 13.17546 3.78125 13.3125 C 3.328047 13.957443 3.09375 14.7775 3.09375 15.6875 C 3.09375 16.8175 3.742413 17.724216 4.4375 18.34375 C 4.9394572 18.791147 5.4651875 19.054931 6.03125 19.21875 C 6.4340772 21.397948 7.6096876 23.096431 8.96875 24.15625 C 9.7202063 24.742248 10.494227 25.149364 11.1875 25.4375 C 11.880773 25.725636 12.444231 25.90625 13 25.90625 C 13.555769 25.90625 14.144138 25.722914 14.84375 25.4375 C 15.543362 25.152086 16.304302 24.735237 17.0625 24.15625 C 18.425508 23.115408 19.595335 21.445461 19.96875 19.3125 C 20.602437 19.131374 21.161771 18.806979 21.65625 18.3125 C 22.321958 17.646792 22.90625 16.751786 22.90625 15.6875 C 22.90625 14.816071 22.662653 14.023782 22.21875 13.375 C 22.115089 13.223496 21.979564 13.09406 21.84375 12.96875 C 22.508903 5.2417444 18.210218 2.09375 13 2.09375 z M 9.03125 8.0625 C 11.912206 13.724405 16.137052 9.3852836 17.96875 9.03125 C 18.758458 10.032751 19.231437 11.413396 19.3125 13.15625 A 0.90008998 0.90008998 0 0 0 20.1875 14 C 20.3275 14 20.512653 14.07378 20.71875 14.375 C 20.924847 14.676218 21.09375 15.158929 21.09375 15.6875 C 21.09375 16.023214 20.809292 16.596958 20.375 17.03125 C 19.940708 17.465542 19.3625 17.6875 19.3125 17.6875 A 0.90008998 0.90008998 0 0 0 18.40625 18.53125 C 18.277318 20.42225 17.202355 21.807975 15.96875 22.75 C 15.351948 23.221013 14.712888 23.554164 14.15625 23.78125 C 13.599612 24.008336 13.094231 24.09375 13 24.09375 C 12.90577 24.09375 12.422352 24.00874 11.875 23.78125 C 11.327648 23.553761 10.673544 23.195252 10.0625 22.71875 C 8.8404126 21.765746 7.7678518 20.364895 7.59375 18.40625 A 0.90008998 0.90008998 0 0 0 6.6875 17.59375 C 6.775 17.59375 6.111163 17.405466 5.65625 17 C 5.201337 16.594534 4.90625 16.0575 4.90625 15.6875 C 4.90625 15.0975 5.053203 14.623807 5.25 14.34375 C 5.446797 14.063693 5.6425 14 5.8125 14 A 0.90008998 0.90008998 0 0 0 6.6875 13.15625 C 6.7277544 12.290781 6.8731056 11.528588 7.09375 10.84375 C 7.6751031 10.648692 8.1605826 10.404252 8.9375 8.125 C 8.9683775 8.1021634 8.999674 8.0847191 9.03125 8.0625 z M 20.875 11.84375 C 20.954044 12.038012 21.017531 12.25917 21.09375 12.46875 C 21.05256 12.450234 21.010786 12.422949 20.96875 12.40625 C 20.948795 12.213943 20.902975 12.031803 20.875 11.84375 z M 9.5 14 C 8.6715729 14 8 14.671573 8 15.5 C 8 16.328427 8.6715729 17 9.5 17 C 10.328427 17 11 16.328427 11 15.5 C 11 14.671573 10.328427 14 9.5 14 z M 16.5 14 C 15.671573 14 15 14.671573 15 15.5 C 15 16.328427 15.671573 17 16.5 17 C 17.328427 17 18 16.328427 18 15.5 C 18 14.671573 17.328427 14 16.5 14 z" overflow="visible" enable-background="accumulate" font-family="Bitstream Vera Sans"/>
</svg>
