<?xml version="1.0" encoding="UTF-8" standalone="no"?>
<svg
   xmlns:dc="http://purl.org/dc/elements/1.1/"
   xmlns:cc="http://creativecommons.org/ns#"
   xmlns:rdf="http://www.w3.org/1999/02/22-rdf-syntax-ns#"
   xmlns:svg="http://www.w3.org/2000/svg"
   xmlns="http://www.w3.org/2000/svg"
   xmlns:sodipodi="http://sodipodi.sourceforge.net/DTD/sodipodi-0.dtd"
   xmlns:inkscape="http://www.inkscape.org/namespaces/inkscape"
   version="1.1"
   id="Capa_1"
   x="0px"
   y="0px"
   viewBox="0 0 24.999999 24.999999"
   xml:space="preserve"
   sodipodi:docname="magnification-glass.svg"
   inkscape:version="1.0.1 (3bc2e813f5, 2020-09-07)"
   width="25"
   height="25"><metadata
   id="metadata11"><rdf:RDF><cc:Work
       rdf:about=""><dc:format>image/svg+xml</dc:format><dc:type
         rdf:resource="http://purl.org/dc/dcmitype/StillImage" /><dc:title></dc:title></cc:Work></rdf:RDF></metadata><defs
   id="defs9" /><sodipodi:namedview
   pagecolor="#ffffff"
   bordercolor="#666666"
   borderopacity="1"
   objecttolerance="10"
   gridtolerance="10"
   guidetolerance="10"
   inkscape:pageopacity="0"
   inkscape:pageshadow="2"
   inkscape:window-width="1552"
   inkscape:window-height="872"
   id="namedview7"
   showgrid="false"
   inkscape:zoom="16"
   inkscape:cx="17.850163"
   inkscape:cy="19.356938"
   inkscape:window-x="0"
   inkscape:window-y="27"
   inkscape:window-maximized="0"
   inkscape:current-layer="Capa_1"
   inkscape:document-rotation="0" />
<g
   id="g4"
   style="fill:#878787;fill-opacity:1"
   transform="matrix(0.05073756,0,0,0.05073304,0,0.04176775)">
	<path
   d="m 483.4,454.444 -121.3,-121.4 c 28.7,-35.2 46,-80 46,-128.9 0,-112.5 -91.5,-204.1 -204.1,-204.1 -112.6,0 -204,91.6 -204,204.1 0,112.5 91.5,204 204.1,204 48.8,0 93.7,-17.3 128.9,-46 l 121.3,121.3 c 8.3,8.3 20.9,8.3 29.2,0 8.3,-8.3 8.3,-20.7 -0.1,-29 z M 40.7,204.144 c 0,-90.1 73.2,-163.3 163.3,-163.3 90.1,0 163.4,73.3 163.4,163.4 0,90.1 -73.3,163.4 -163.4,163.4 -90.1,0 -163.3,-73.4 -163.3,-163.5 z"
   id="path2"
   style="fill:#878787;fill-opacity:1" />
</g>
</svg>
