<?xml version="1.0" encoding="UTF-8" standalone="no"?>
<svg
   xmlns:dc="http://purl.org/dc/elements/1.1/"
   xmlns:cc="http://creativecommons.org/ns#"
   xmlns:rdf="http://www.w3.org/1999/02/22-rdf-syntax-ns#"
   xmlns:svg="http://www.w3.org/2000/svg"
   xmlns="http://www.w3.org/2000/svg"
   xmlns:sodipodi="http://sodipodi.sourceforge.net/DTD/sodipodi-0.dtd"
   xmlns:inkscape="http://www.inkscape.org/namespaces/inkscape"
   version="1.1"
   id="Capa_1"
   x="0px"
   y="0px"
   viewBox="0 0 489.713 489.713"
   style="enable-background:new 0 0 489.713 489.713;"
   xml:space="preserve"
   sodipodi:docname="magnification-glass.svg"
   inkscape:version="0.92.5 (2060ec1f9f, 2020-04-08)"><metadata
   id="metadata11"><rdf:RDF><cc:Work
       rdf:about=""><dc:format>image/svg+xml</dc:format><dc:type
         rdf:resource="http://purl.org/dc/dcmitype/StillImage" /></cc:Work></rdf:RDF></metadata><defs
   id="defs9" /><sodipodi:namedview
   pagecolor="#ffffff"
   bordercolor="#666666"
   borderopacity="1"
   objecttolerance="10"
   gridtolerance="10"
   guidetolerance="10"
   inkscape:pageopacity="0"
   inkscape:pageshadow="2"
   inkscape:window-width="1552"
   inkscape:window-height="872"
   id="namedview7"
   showgrid="false"
   inkscape:zoom="0.48191491"
   inkscape:cx="-70.551869"
   inkscape:cy="244.85651"
   inkscape:window-x="0"
   inkscape:window-y="27"
   inkscape:window-maximized="0"
   inkscape:current-layer="Capa_1" />
<g
   id="g4"
   style="fill:#878787;fill-opacity:1">
	<path
   d="M483.4,454.444l-121.3-121.4c28.7-35.2,46-80,46-128.9c0-112.5-91.5-204.1-204.1-204.1S0,91.644,0,204.144   s91.5,204,204.1,204c48.8,0,93.7-17.3,128.9-46l121.3,121.3c8.3,8.3,20.9,8.3,29.2,0S491.8,462.744,483.4,454.444z M40.7,204.144   c0-90.1,73.2-163.3,163.3-163.3s163.4,73.3,163.4,163.4s-73.3,163.4-163.4,163.4S40.7,294.244,40.7,204.144z"
   id="path2"
   style="fill:#878787;fill-opacity:1" />
</g>
</svg>