<?xml version="1.0" encoding="UTF-8" standalone="no"?>
<!-- Generator: Adobe Illustrator 19.1.1, SVG Export Plug-In . SVG Version: 6.00 Build 0)  -->

<svg
   xmlns:dc="http://purl.org/dc/elements/1.1/"
   xmlns:cc="http://creativecommons.org/ns#"
   xmlns:rdf="http://www.w3.org/1999/02/22-rdf-syntax-ns#"
   xmlns:svg="http://www.w3.org/2000/svg"
   xmlns="http://www.w3.org/2000/svg"
   xmlns:sodipodi="http://sodipodi.sourceforge.net/DTD/sodipodi-0.dtd"
   xmlns:inkscape="http://www.inkscape.org/namespaces/inkscape"
   version="1.1"
   x="0px"
   y="0px"
   viewBox="0 0 48 48"
   enable-background="new 0 0 48 48"
   xml:space="preserve"
   id="svg8"
   sodipodi:docname="operator.svg"
   inkscape:version="0.92.4 (5da689c313, 2019-01-14)"><metadata
   id="metadata14"><rdf:RDF><cc:Work
       rdf:about=""><dc:format>image/svg+xml</dc:format><dc:type
         rdf:resource="http://purl.org/dc/dcmitype/StillImage" /></cc:Work></rdf:RDF></metadata><defs
   id="defs12" /><sodipodi:namedview
   pagecolor="#ffffff"
   bordercolor="#666666"
   borderopacity="1"
   objecttolerance="10"
   gridtolerance="10"
   guidetolerance="10"
   inkscape:pageopacity="0"
   inkscape:pageshadow="2"
   inkscape:window-width="1334"
   inkscape:window-height="817"
   id="namedview10"
   showgrid="false"
   inkscape:zoom="4.9166667"
   inkscape:cx="24"
   inkscape:cy="24"
   inkscape:window-x="0"
   inkscape:window-y="27"
   inkscape:window-maximized="0"
   inkscape:current-layer="svg8" />
<path
   fill="none"
   stroke="#90A4AE"
   stroke-width="2"
   stroke-miterlimit="10"
   d="M38,36v3.3c0,1.5-1.2,2.8-2.8,2.8L25,42"
   id="path2" />
<path
   fill="#0097A7"
   d="M24,4C14.1,4,6,12.1,6,22l0,11h4l0-11c0-7.7,6.3-14,14-14c7.7,0,14,6.3,14,14v11h4V22C42,12.1,33.9,4,24,4"
   id="path4"
   style="fill:#ececec" />
<path
   fill="#37474F"
   d="M38,38h-4V26h4c2.2,0,4,1.8,4,4v4C42,36.2,40.2,38,38,38 M10,38h4V26h-4c-2.2,0-4,1.8-4,4v4  C6,36.2,7.8,38,10,38 M28,42L28,42c0-1.1-0.9-2-2-2h-3c-1.1,0-2,0.9-2,2v0c0,1.1,0.9,2,2,2h3C27.1,44,28,43.1,28,42z"
   id="path6"
   style="fill:#cccccc" />
</svg>