<?xml version="1.0" encoding="UTF-8" standalone="no"?>
<!-- Svg Vector Icons : http://www.onlinewebfonts.com/icon -->

<svg
        xmlns:dc="http://purl.org/dc/elements/1.1/"
        xmlns:cc="http://creativecommons.org/ns#"
        xmlns:rdf="http://www.w3.org/1999/02/22-rdf-syntax-ns#"
        xmlns="http://www.w3.org/2000/svg"
        xmlns:sodipodi="http://sodipodi.sourceforge.net/DTD/sodipodi-0.dtd"
        xmlns:inkscape="http://www.inkscape.org/namespaces/inkscape"
        version="1.1"
        x="0px"
        y="0px"
        viewBox="0 0 100 100"
        enable-background="new 0 0 1000 1000"
        xml:space="preserve"
        id="svg140"
        sodipodi:docname="robot-head.svg"
        width="100"
        height="100"
        inkscape:version="0.92.2 (5c3e80d, 2017-08-06)"><defs
     id="defs144" /><sodipodi:namedview
     pagecolor="#ffffff"
     bordercolor="#666666"
     borderopacity="1"
     objecttolerance="10"
     gridtolerance="10"
     guidetolerance="10"
     inkscape:pageopacity="0"
     inkscape:pageshadow="2"
     inkscape:window-width="1920"
     inkscape:window-height="1025"
     id="namedview142"
     showgrid="false"
     inkscape:zoom="3.776"
     inkscape:cx="20.605572"
     inkscape:cy="20.605572"
     inkscape:window-x="0"
     inkscape:window-y="27"
     inkscape:window-maximized="1"
     inkscape:current-layer="svg140" /><metadata
     id="metadata126"> Svg Vector Icons : http://www.onlinewebfonts.com/icon <rdf:RDF><cc:Work
     rdf:about=""><dc:format>image/svg+xml</dc:format><dc:type
       rdf:resource="http://purl.org/dc/dcmitype/StillImage" /><dc:title></dc:title></cc:Work></rdf:RDF></metadata><g
     id="g3844"
     transform="matrix(0.10361309,0,0,0.11203917,-1.3012889,100.07318)"><path
       d="m 737.43729,-394.2 c -2,35.8 -4.1,68.3 -6.8,100.7 -4.7,70.3 -59.5,127.1 -129.1,133.1 -68.3,6.1 -137.2,6.1 -205.5,0 -74.3,-6.1 -129.1,-63.5 -133.1,-137.2 -2.7,-54.7 -2,-110.2 -6.8,-165.6 -8.8,-101.4 86.5,-162.9 156.1,-165.6 56.1,-2 112.9,-2 169,0 90.6,3.4 157.5,75.7 156.1,164.9 0.1,25 0.1,48.7 0.1,69.7 z m -120.3,37.8 c 31.1,0 58.1,-27.7 57.5,-58.1 -0.7,-29.1 -27.7,-55.4 -56.8,-55.4 -28.4,-0.7 -56.8,26.4 -57.5,54.7 0,31.8 26.4,58.8 56.8,58.8 z m -235.9,-112.9 c -29.7,-2.7 -59.5,23 -61.5,54.1 -2,29.1 22.3,56.8 52,59.5 31.1,2.7 59.5,-21.6 61.5,-53.4 1.4,-28.4 -24.3,-58.1 -52,-60.2 z"
       id="path130"
       inkscape:connector-curvature="0" /><path
       d="m 773.93729,-292.9 c 0,-61.5 -0.7,-112.9 0,-164.9 2.7,-110.8 -79.1,-201.4 -190.6,-207.5 -57.5,-2.7 -114.9,-2.7 -172.3,0 -89.9,4.7 -201.4,83.1 -191.9,203.4 4.1,52.7 0.7,106.1 0.7,169.6 -18.9,-60.8 -22.3,-113.5 -21,-166.9 6.8,-208.8 204.1,-343.3 401.5,-275.1 118.3,40.6 202.1,168.3 194,294.7 -2.9,46.7 -0.8,93.3 -20.4,146.7 z"
       id="path132"
       inkscape:connector-curvature="0" /><path
       d="m 832.73729,-479.4 c 16.2,33.1 16.2,66.9 0,100.7 0,-33.8 0,-66.9 0,-100.7 z"
       id="path134"
       inkscape:connector-curvature="0" /><path
       d="m 162.23729,-366.5 c -18.2,-27 -11.5,-57.5 -13.5,-93.9 23,34.4 10.8,64.8 13.5,93.9 z"
       id="path136"
       inkscape:connector-curvature="0" /></g></svg>