<?xml version="1.0" encoding="UTF-8" standalone="no"?>
<!-- Generator: Adobe Illustrator 16.0.0, SVG Export Plug-In . SVG Version: 6.00 Build 0)  -->

<svg
   xmlns:dc="http://purl.org/dc/elements/1.1/"
   xmlns:cc="http://creativecommons.org/ns#"
   xmlns:rdf="http://www.w3.org/1999/02/22-rdf-syntax-ns#"
   xmlns:svg="http://www.w3.org/2000/svg"
   xmlns="http://www.w3.org/2000/svg"
   xmlns:sodipodi="http://sodipodi.sourceforge.net/DTD/sodipodi-0.dtd"
   xmlns:inkscape="http://www.inkscape.org/namespaces/inkscape"
   version="1.1"
   id="Capa_1"
   x="0px"
   y="0px"
   width="610"
   height="610"
   viewBox="0 0 610.00003 610.00003"
   xml:space="preserve"
   sodipodi:docname="view-thumbnails.svg"
   inkscape:version="0.92.5 (2060ec1f9f, 2020-04-08)"><metadata
   id="metadata59"><rdf:RDF><cc:Work
       rdf:about=""><dc:format>image/svg+xml</dc:format><dc:type
         rdf:resource="http://purl.org/dc/dcmitype/StillImage" /><dc:title /></cc:Work></rdf:RDF></metadata><defs
   id="defs57" /><sodipodi:namedview
   pagecolor="#ffffff"
   bordercolor="#666666"
   borderopacity="1"
   objecttolerance="10"
   gridtolerance="10"
   guidetolerance="10"
   inkscape:pageopacity="0"
   inkscape:pageshadow="2"
   inkscape:window-width="1265"
   inkscape:window-height="724"
   id="namedview55"
   showgrid="false"
   inkscape:zoom="0.39287565"
   inkscape:cx="-269.77597"
   inkscape:cy="300.34949"
   inkscape:window-x="0"
   inkscape:window-y="27"
   inkscape:window-maximized="0"
   inkscape:current-layer="Capa_1" />
<g
   id="g22"
   style="fill:#cccccc;fill-opacity:1"
   transform="translate(8,9.3010254)">
	<g
   id="g20"
   style="fill:#cccccc;fill-opacity:1">
		<g
   id="g6"
   style="fill:#cccccc;fill-opacity:1">
			<path
   d="M 542.061,83.223 H 58.64 c -32.059,0 -58.14,26.082 -58.14,58.14 v 317.973 c 0,32.059 26.082,58.141 58.14,58.141 h 483.42 c 32.059,0 58.139,-26.082 58.139,-58.141 V 141.363 c 0,-32.059 -26.08,-58.14 -58.138,-58.14 z m 15.298,376.113 c 0,8.451 -6.85,15.301 -15.299,15.301 H 58.64 c -8.45,0 -15.3,-6.85 -15.3,-15.301 V 141.363 c 0,-8.451 6.85,-15.3 15.3,-15.3 h 483.42 c 8.449,0 15.299,6.849 15.299,15.3 z"
   id="path2"
   style="fill:#cccccc;fill-opacity:1"
   inkscape:connector-curvature="0" />
			<path
   d="M 542.061,517.977 H 58.64 C 26.306,517.977 0,491.671 0,459.336 V 141.363 c 0,-32.334 26.306,-58.64 58.64,-58.64 h 483.42 c 32.333,0 58.639,26.306 58.639,58.64 v 317.973 c 0,32.335 -26.305,58.641 -58.638,58.641 z M 58.64,83.723 C 26.857,83.723 1,109.58 1,141.363 v 317.973 c 0,31.783 25.857,57.641 57.64,57.641 h 483.42 c 31.782,0 57.639,-25.857 57.639,-57.641 V 141.363 c 0,-31.783 -25.856,-57.64 -57.639,-57.64 z M 542.061,475.137 H 58.64 c -8.712,0 -15.8,-7.088 -15.8,-15.801 V 141.363 c 0,-8.712 7.088,-15.8 15.8,-15.8 h 483.42 c 8.712,0 15.799,7.088 15.799,15.8 v 317.973 c 0,8.713 -7.087,15.801 -15.798,15.801 z M 58.64,126.563 c -8.161,0 -14.8,6.639 -14.8,14.8 v 317.973 c 0,8.161 6.639,14.801 14.8,14.801 h 483.42 c 8.16,0 14.799,-6.64 14.799,-14.801 V 141.363 c 0,-8.161 -6.639,-14.8 -14.799,-14.8 z"
   id="path4"
   style="fill:#cccccc;fill-opacity:1"
   inkscape:connector-curvature="0" />
		</g>
		<g
   id="g12"
   style="fill:#cccccc;fill-opacity:1">
			<path
   d="m 455.209,157.231 c -33.867,0 -61.42,27.553 -61.42,61.421 0,33.868 27.553,61.421 61.42,61.421 33.867,0 61.422,-27.553 61.422,-61.421 0,-33.868 -27.555,-61.421 -61.422,-61.421 z m 0,80.002 c -10.262,0 -18.58,-8.319 -18.58,-18.581 0,-10.262 8.318,-18.581 18.58,-18.581 10.262,0 18.582,8.319 18.582,18.581 0,10.262 -8.32,18.581 -18.582,18.581 z"
   id="path8"
   style="fill:#cccccc;fill-opacity:1"
   inkscape:connector-curvature="0" />
			<path
   d="m 455.209,280.573 c -34.143,0 -61.92,-27.778 -61.92,-61.921 0,-34.143 27.777,-61.921 61.92,-61.921 34.144,0 61.922,27.778 61.922,61.921 0,34.143 -27.778,61.921 -61.922,61.921 z m 0,-122.842 c -33.592,0 -60.92,27.329 -60.92,60.921 0,33.592 27.328,60.921 60.92,60.921 33.593,0 60.922,-27.329 60.922,-60.921 0,-33.592 -27.329,-60.921 -60.922,-60.921 z m 0,80.002 c -10.521,0 -19.08,-8.56 -19.08,-19.081 0,-10.521 8.56,-19.081 19.08,-19.081 10.521,0 19.082,8.56 19.082,19.081 0,10.521 -8.561,19.081 -19.082,19.081 z m 0,-37.162 c -9.97,0 -18.08,8.111 -18.08,18.081 0,9.97 8.11,18.081 18.08,18.081 9.971,0 18.082,-8.111 18.082,-18.081 0,-9.97 -8.111,-18.081 -18.082,-18.081 z"
   id="path10"
   style="fill:#cccccc;fill-opacity:1"
   inkscape:connector-curvature="0" />
		</g>
		<g
   id="g18"
   style="fill:#cccccc;fill-opacity:1">
			<path
   d="m 383.445,312.971 c -5.975,-5.975 -15.662,-5.975 -21.637,0 l -45.223,45.223 -81.531,-81.528 c -5.975,-5.976 -15.663,-5.976 -21.637,0 L 84.204,405.877 c -5.975,5.977 -5.975,15.662 0,21.639 l 8.656,8.654 c 5.975,5.975 15.662,5.975 21.637,0 l 98.921,-98.922 c 5.975,-5.975 15.662,-5.975 21.637,0 l 98.921,98.922 c 5.975,5.977 15.662,5.977 21.637,0 l 8.656,-8.654 c 5.975,-5.977 5.975,-15.664 0,-21.639 l -17.393,-17.391 25.75,-25.75 74.271,74.273 c 5.975,5.975 15.662,5.975 21.637,0 l 8.656,-8.656 c 5.975,-5.975 5.975,-15.664 0,-21.637 z"
   id="path14"
   style="fill:#cccccc;fill-opacity:1"
   inkscape:connector-curvature="0" />
			<path
   d="m 457.717,441.991 c -4.221,0 -8.188,-1.644 -11.172,-4.628 l -73.918,-73.92 -25.043,25.043 17.039,17.037 c 6.16,6.16 6.16,16.184 0,22.346 l -8.656,8.654 c -2.984,2.985 -6.951,4.629 -11.172,4.629 -4.221,0 -8.188,-1.644 -11.172,-4.629 l -98.921,-98.922 c -2.795,-2.795 -6.512,-4.334 -10.465,-4.334 -3.953,0 -7.669,1.539 -10.465,4.334 l -98.921,98.922 c -2.984,2.984 -6.952,4.628 -11.172,4.628 -4.22,0 -8.188,-1.644 -11.172,-4.628 l -8.656,-8.654 c -6.159,-6.161 -6.159,-16.185 0,-22.346 L 213.065,276.311 c 2.984,-2.984 6.952,-4.628 11.172,-4.628 4.22,0 8.188,1.644 11.172,4.628 l 81.177,81.175 44.869,-44.869 c 2.984,-2.984 6.951,-4.627 11.172,-4.627 4.221,0 8.188,1.643 11.172,4.627 l 93.746,93.746 c 2.984,2.983 4.628,6.95 4.628,11.171 0,4.221 -1.644,8.188 -4.628,11.173 l -8.656,8.656 c -2.985,2.985 -6.951,4.628 -11.172,4.628 z m -85.09,-79.962 74.625,74.627 c 2.795,2.795 6.512,4.335 10.465,4.335 3.953,0 7.67,-1.54 10.465,-4.335 L 476.838,428 c 2.795,-2.795 4.335,-6.512 4.335,-10.466 0,-3.953 -1.54,-7.67 -4.335,-10.464 l -93.746,-93.746 c -2.795,-2.795 -6.512,-4.334 -10.465,-4.334 -3.953,0 -7.67,1.539 -10.465,4.334 L 316.586,358.9 234.702,277.018 c -2.795,-2.795 -6.512,-4.335 -10.465,-4.335 -3.953,0 -7.669,1.54 -10.465,4.335 L 84.557,406.23 c -5.769,5.771 -5.769,15.161 0,20.932 l 8.656,8.654 c 2.795,2.795 6.512,4.335 10.465,4.335 3.953,0 7.669,-1.54 10.465,-4.335 l 98.921,-98.922 c 2.984,-2.984 6.952,-4.627 11.172,-4.627 4.22,0 8.188,1.643 11.172,4.627 l 98.921,98.922 c 2.795,2.796 6.512,4.336 10.465,4.336 3.953,0 7.67,-1.54 10.465,-4.336 l 8.656,-8.654 c 5.77,-5.771 5.77,-15.162 0,-20.932 l -17.746,-17.744 z"
   id="path16"
   style="fill:#cccccc;fill-opacity:1"
   inkscape:connector-curvature="0" />
		</g>
	</g>
</g>
<g
   id="g24"
   transform="translate(0,9.3010254)">
</g>
<g
   id="g26"
   transform="translate(0,9.3010254)">
</g>
<g
   id="g28"
   transform="translate(0,9.3010254)">
</g>
<g
   id="g30"
   transform="translate(0,9.3010254)">
</g>
<g
   id="g32"
   transform="translate(0,9.3010254)">
</g>
<g
   id="g34"
   transform="translate(0,9.3010254)">
</g>
<g
   id="g36"
   transform="translate(0,9.3010254)">
</g>
<g
   id="g38"
   transform="translate(0,9.3010254)">
</g>
<g
   id="g40"
   transform="translate(0,9.3010254)">
</g>
<g
   id="g42"
   transform="translate(0,9.3010254)">
</g>
<g
   id="g44"
   transform="translate(0,9.3010254)">
</g>
<g
   id="g46"
   transform="translate(0,9.3010254)">
</g>
<g
   id="g48"
   transform="translate(0,9.3010254)">
</g>
<g
   id="g50"
   transform="translate(0,9.3010254)">
</g>
<g
   id="g52"
   transform="translate(0,9.3010254)">
</g>
</svg>